<?xml version="1.0" encoding="utf-8"?>
<!-- Generator: Adobe Illustrator 25.0.0, SVG Export Plug-In . SVG Version: 6.00 Build 0)  -->
<svg version="1.1" id="Layer_1" xmlns="http://www.w3.org/2000/svg" xmlns:xlink="http://www.w3.org/1999/xlink" x="0px" y="0px"
	 viewBox="0 0 792 612" style="enable-background:new 0 0 792 612;" xml:space="preserve">
<style type="text/css">
	.st0{fill:#81730C;}
	.st1{fill:#BCA61F;}
	.st2{fill:#D9BE23;}
	.st3{fill:#8C7E11;}
	.st4{fill:#DCD51E;}
	.st5{fill:#FFFFFF;}
	.st6{fill:#404041;}
</style>
<g>
	<g>
		<path class="st0" d="M531.6,303.3c-8.4-6-19.4-9.3-31-9.3H291.4c-11.6,0-22.6,3.3-31,9.3c-9,6.5-13.9,15.2-13.9,24.7
			c0,9.5,4.9,18.3,13.9,24.7c8.4,6,19.4,9.3,31,9.3h209.1c11.6,0,22.6-3.3,31-9.3c9-6.5,13.9-15.2,13.9-24.7
			C545.5,318.6,540.5,309.8,531.6,303.3z"/>
		<rect x="246.5" y="300.2" class="st0" width="299" height="31.4"/>
		<g>
			<path class="st1" d="M291.4,334.2c-11.6,0-22.6-3.3-31-9.3c-9-6.5-13.9-15.2-13.9-24.7c0-9.5,4.9-18.3,13.9-24.7
				c8.4-6,19.4-9.3,31-9.3h209.1c11.6,0,22.6,3.3,31,9.3c9,6.5,13.9,15.2,13.9,24.7c0,9.5-4.9,18.3-13.9,24.7
				c-8.4,6-19.4,9.3-31,9.3H291.4z"/>
			<path class="st2" d="M500.6,272.3c21.4,0,38.8,12.5,38.8,27.9c0,15.4-17.4,27.9-38.8,27.9H291.4c-21.4,0-38.8-12.5-38.8-27.9
				c0-15.4,17.4-27.9,38.8-27.9H500.6z"/>
		</g>
		<path class="st3" d="M539.3,280c0,0.1,0,0.2,0,0.3c0,0.4-0.1,0.8-0.1,1.3c0,0.1,0,0.2,0,0.3c0,0.3-0.1,0.7-0.2,1
			c0,0.1-0.1,0.2-0.1,0.4c-0.1,0.3-0.1,0.6-0.2,0.8c0,0.2-0.1,0.3-0.1,0.5c-0.1,0.3-0.2,0.6-0.3,0.9c0,0.1-0.1,0.2-0.1,0.4
			c-0.2,0.4-0.3,0.8-0.5,1.2c0,0.1-0.1,0.1-0.1,0.2c-0.2,0.3-0.3,0.7-0.5,1c-0.1,0.1-0.1,0.3-0.2,0.4c-0.1,0.3-0.3,0.5-0.4,0.8
			c-0.1,0.2-0.2,0.3-0.3,0.4c-0.1,0.2-0.3,0.5-0.5,0.7c-0.1,0.2-0.2,0.3-0.3,0.4c-0.2,0.2-0.3,0.5-0.5,0.7c-0.1,0.1-0.2,0.3-0.3,0.4
			c-0.2,0.3-0.4,0.5-0.6,0.8c-0.1,0.1-0.2,0.2-0.3,0.3c-0.3,0.4-0.6,0.7-0.9,1.1c0,0,0,0-0.1,0.1c-0.3,0.3-0.6,0.7-1,1
			c-0.1,0.1-0.2,0.2-0.3,0.3c-0.2,0.2-0.4,0.4-0.7,0.6c-0.5,0.4-0.9,0.8-1.4,1.2c0,0,0,0,0,0c-0.5,0.4-1,0.7-1.5,1.1
			c-0.3,0.2-0.5,0.4-0.8,0.5c-0.1,0.1-0.3,0.2-0.4,0.3c-0.4,0.3-0.8,0.5-1.2,0.8c0,0,0,0-0.1,0c-0.4,0.3-0.9,0.5-1.4,0.8
			c-0.1,0.1-0.3,0.2-0.4,0.2c-0.3,0.2-0.6,0.3-1,0.5c-0.2,0.1-0.4,0.2-0.5,0.3c-0.3,0.1-0.6,0.3-0.9,0.4c-0.2,0.1-0.4,0.2-0.6,0.3
			c-0.3,0.1-0.6,0.3-1,0.4c-0.2,0.1-0.4,0.2-0.6,0.2c-0.4,0.1-0.7,0.3-1.1,0.4c-0.2,0.1-0.3,0.1-0.5,0.2c-0.5,0.2-1,0.3-1.5,0.5
			c-0.1,0-0.1,0-0.2,0c-0.5,0.2-1.1,0.3-1.7,0.5c-0.2,0-0.4,0.1-0.5,0.1c-0.4,0.1-0.8,0.2-1.2,0.3c-0.2,0.1-0.4,0.1-0.7,0.1
			c-0.4,0.1-0.7,0.2-1.1,0.2c-0.2,0-0.3,0.1-0.5,0.1c-0.4,0.1-0.9,0.1-1.3,0.2c-0.1,0-0.3,0-0.4,0.1c-0.6,0.1-1.1,0.2-1.7,0.2
			c-0.1,0-0.2,0-0.3,0c-0.4,0-0.9,0.1-1.3,0.1c-0.5,0-1,0.1-1.5,0.1c-0.2,0-0.5,0-0.7,0c-0.7,0-1.5,0-2.2,0H291.4
			c-0.6,0-1.1,0-1.7,0c-0.2,0-0.3,0-0.5,0c-0.6,0-1.2-0.1-1.8-0.1c-0.1,0-0.1,0-0.2,0c-0.5,0-1-0.1-1.6-0.1c-0.2,0-0.3,0-0.5-0.1
			c-0.4,0-0.8-0.1-1.2-0.1c-0.2,0-0.5-0.1-0.7-0.1c-0.4-0.1-0.7-0.1-1.1-0.2c-0.2,0-0.5-0.1-0.7-0.1c-0.4-0.1-0.8-0.2-1.2-0.2
			c-0.2,0-0.4-0.1-0.6-0.1c-0.6-0.1-1.1-0.3-1.7-0.4c0,0,0,0,0,0c-0.5-0.1-1-0.3-1.6-0.4c-0.2,0-0.3-0.1-0.5-0.2
			c-0.4-0.1-0.7-0.2-1.1-0.4c-0.2-0.1-0.3-0.1-0.5-0.2c-0.4-0.1-0.8-0.3-1.2-0.4c-0.1,0-0.2-0.1-0.4-0.1c-0.5-0.2-1-0.4-1.5-0.6
			c-0.1,0-0.2-0.1-0.3-0.1c-0.4-0.2-0.7-0.3-1.1-0.5c-0.2-0.1-0.3-0.2-0.5-0.2c-0.3-0.2-0.7-0.3-1-0.5c-0.1-0.1-0.3-0.2-0.4-0.2
			c-0.4-0.2-0.8-0.4-1.2-0.7c0,0-0.1,0-0.1-0.1c-0.4-0.3-0.9-0.5-1.3-0.8c-0.1-0.1-0.2-0.2-0.4-0.2c-0.3-0.2-0.6-0.4-0.9-0.6
			c-0.1-0.1-0.3-0.2-0.4-0.3c-0.3-0.2-0.6-0.4-0.9-0.6c-0.1-0.1-0.2-0.2-0.3-0.2c-0.4-0.3-0.7-0.6-1.1-0.9c-0.1-0.1-0.1-0.1-0.2-0.2
			c-0.3-0.3-0.6-0.5-0.9-0.8c-0.1-0.1-0.2-0.2-0.3-0.3c-0.2-0.2-0.5-0.5-0.7-0.7c-0.1-0.1-0.2-0.2-0.3-0.3c-0.3-0.3-0.5-0.6-0.8-0.9
			c-0.1-0.1-0.1-0.1-0.2-0.2c-0.3-0.3-0.6-0.7-0.8-1.1c-0.1-0.1-0.1-0.2-0.2-0.3c-0.2-0.3-0.4-0.5-0.6-0.8c-0.1-0.1-0.2-0.2-0.2-0.4
			c-0.2-0.3-0.3-0.5-0.5-0.8c-0.1-0.1-0.1-0.2-0.2-0.3c-0.2-0.4-0.4-0.8-0.6-1.1c0,0,0-0.1-0.1-0.1c-0.2-0.3-0.3-0.7-0.5-1
			c-0.1-0.1-0.1-0.3-0.2-0.4c-0.1-0.3-0.2-0.6-0.3-0.8c0-0.1-0.1-0.3-0.1-0.4c-0.1-0.3-0.2-0.6-0.3-1c0-0.1-0.1-0.2-0.1-0.3
			c-0.1-0.4-0.2-0.8-0.3-1.2c0-0.1,0-0.2-0.1-0.3c-0.1-0.3-0.1-0.6-0.2-1c0-0.1,0-0.3-0.1-0.4c0-0.3-0.1-0.6-0.1-0.9
			c0-0.1,0-0.3,0-0.4c0-0.4,0-0.9,0-1.3v0v0v21.4c0,0.4,0,0.9,0,1.3c0,0.1,0,0.3,0,0.4c0,0.3,0.1,0.6,0.1,0.9c0,0.1,0,0.3,0.1,0.4
			c0,0.3,0.1,0.6,0.2,1c0,0.1,0,0.2,0.1,0.3c0.1,0.4,0.2,0.8,0.3,1.2c0,0.1,0.1,0.2,0.1,0.3c0.1,0.3,0.2,0.6,0.3,1
			c0,0.1,0.1,0.3,0.1,0.4c0.1,0.3,0.2,0.6,0.3,0.8c0.1,0.1,0.1,0.3,0.2,0.4c0.2,0.4,0.3,0.7,0.5,1c0,0,0,0.1,0.1,0.1
			c0.2,0.4,0.4,0.8,0.6,1.1c0.1,0.1,0.1,0.2,0.2,0.3c0.2,0.3,0.3,0.5,0.5,0.8c0.1,0.1,0.2,0.2,0.2,0.4c0.2,0.3,0.4,0.5,0.6,0.8
			c0.1,0.1,0.1,0.2,0.2,0.3c0.3,0.4,0.6,0.7,0.8,1.1c0.1,0.1,0.1,0.1,0.2,0.2c0.2,0.3,0.5,0.6,0.8,0.9c0.1,0.1,0.2,0.2,0.3,0.3
			c0.2,0.2,0.5,0.5,0.7,0.7c0.1,0.1,0.2,0.2,0.3,0.3c0.3,0.3,0.6,0.5,0.9,0.8c0.1,0.1,0.1,0.1,0.2,0.2c0.4,0.3,0.7,0.6,1.1,0.9
			c0.1,0.1,0.2,0.2,0.3,0.2c0.3,0.2,0.6,0.4,0.9,0.6c0.1,0.1,0.3,0.2,0.4,0.3c0.3,0.2,0.6,0.4,0.9,0.6c0.1,0.1,0.2,0.2,0.4,0.2
			c0.4,0.3,0.8,0.5,1.3,0.8c0,0,0.1,0,0.1,0.1c0.4,0.2,0.8,0.5,1.2,0.7c0.1,0.1,0.3,0.2,0.4,0.2c0.3,0.2,0.6,0.3,1,0.5
			c0.2,0.1,0.3,0.2,0.5,0.2c0.4,0.2,0.7,0.3,1.1,0.5c0.1,0,0.2,0.1,0.3,0.1c0.5,0.2,1,0.4,1.5,0.6c0.1,0,0.2,0.1,0.4,0.1
			c0.4,0.1,0.8,0.3,1.2,0.4c0.2,0.1,0.3,0.1,0.5,0.2c0.4,0.1,0.7,0.2,1.1,0.4c0.2,0.1,0.3,0.1,0.5,0.2c0.5,0.2,1,0.3,1.6,0.4
			c0,0,0,0,0,0c0,0,0,0,0,0c0.6,0.1,1.1,0.3,1.7,0.4c0.2,0,0.4,0.1,0.6,0.1c0.4,0.1,0.8,0.2,1.2,0.2c0.2,0,0.5,0.1,0.7,0.1
			c0.4,0.1,0.7,0.1,1.1,0.2c0.2,0,0.5,0.1,0.7,0.1c0.2,0,0.4,0.1,0.6,0.1c0.2,0,0.4,0,0.6,0.1c0.2,0,0.3,0,0.5,0.1
			c0.5,0.1,1,0.1,1.6,0.1c0.1,0,0.1,0,0.2,0c0.6,0,1.2,0.1,1.8,0.1c0.2,0,0.3,0,0.5,0c0.2,0,0.5,0,0.7,0c0.3,0,0.6,0,1,0h209.1
			c0.7,0,1.5,0,2.2,0c0.2,0,0.5,0,0.7,0c0.5,0,1-0.1,1.5-0.1c0.1,0,0.2,0,0.3,0c0.3,0,0.7-0.1,1-0.1c0.1,0,0.2,0,0.3,0
			c0.6-0.1,1.1-0.1,1.7-0.2c0.1,0,0.3,0,0.4-0.1c0.4-0.1,0.9-0.1,1.3-0.2c0.2,0,0.3-0.1,0.5-0.1c0.1,0,0.2,0,0.4-0.1
			c0.3-0.1,0.5-0.1,0.8-0.2c0.2,0,0.4-0.1,0.7-0.1c0.4-0.1,0.8-0.2,1.2-0.3c0.2,0,0.4-0.1,0.5-0.1c0.6-0.1,1.1-0.3,1.7-0.5
			c0.1,0,0.1,0,0.2,0c0.5-0.1,0.9-0.3,1.4-0.4c0,0,0.1,0,0.1,0c0.2-0.1,0.3-0.1,0.5-0.2c0.4-0.1,0.7-0.3,1.1-0.4
			c0.2-0.1,0.4-0.2,0.6-0.2c0.3-0.1,0.6-0.3,1-0.4c0.2-0.1,0.4-0.2,0.6-0.3c0.3-0.1,0.6-0.3,0.9-0.4c0.2-0.1,0.4-0.2,0.5-0.3
			c0.3-0.2,0.7-0.3,1-0.5c0.1-0.1,0.3-0.2,0.4-0.2c0.5-0.3,0.9-0.5,1.4-0.8c0,0,0,0,0.1,0c0.4-0.3,0.8-0.5,1.2-0.8
			c0.1-0.1,0.3-0.2,0.4-0.3c0.2-0.1,0.4-0.3,0.6-0.4c0.1,0,0.1-0.1,0.2-0.1c0.5-0.4,1-0.7,1.5-1.1c0,0,0,0,0,0
			c0.5-0.4,1-0.8,1.4-1.2c0,0,0.1-0.1,0.1-0.1c0.2-0.2,0.4-0.3,0.5-0.5c0.1-0.1,0.2-0.2,0.4-0.3c0.3-0.3,0.6-0.6,1-1
			c0,0,0,0,0.1-0.1c0.3-0.3,0.6-0.7,0.9-1.1c0.1-0.1,0.2-0.2,0.3-0.3c0.2-0.2,0.4-0.5,0.6-0.7c0.1-0.1,0.2-0.3,0.3-0.4
			c0.2-0.2,0.3-0.5,0.5-0.7c0.1-0.1,0.2-0.3,0.3-0.4c0.2-0.2,0.3-0.5,0.5-0.7c0.1-0.1,0.2-0.3,0.3-0.4c0.2-0.3,0.3-0.5,0.4-0.8
			c0.1-0.1,0.1-0.3,0.2-0.4c0,0,0-0.1,0.1-0.1c0.1-0.3,0.3-0.6,0.4-0.9c0-0.1,0.1-0.1,0.1-0.2c0.2-0.4,0.3-0.8,0.5-1.2
			c0-0.1,0.1-0.2,0.1-0.4c0.1-0.3,0.2-0.6,0.3-0.9c0-0.2,0.1-0.3,0.1-0.5c0-0.2,0.1-0.4,0.2-0.6c0-0.1,0-0.2,0.1-0.3
			c0-0.1,0.1-0.2,0.1-0.4c0.1-0.3,0.1-0.6,0.2-1c0-0.1,0-0.2,0-0.3c0.1-0.4,0.1-0.8,0.1-1.3c0-0.1,0-0.2,0-0.3c0-0.2,0-0.5,0-0.7
			c0-0.2,0-0.4,0-0.5v-21.4C539.3,279.2,539.3,279.6,539.3,280z"/>
		<g>
			<path class="st2" d="M500.6,250.9c21.4,0,38.8,12.5,38.8,27.9c0,15.4-17.4,27.9-38.8,27.9H291.4c-21.4,0-38.8-12.5-38.8-27.9
				c0-15.4,17.4-27.9,38.8-27.9H500.6z"/>
			<path class="st4" d="M291.4,303.6c-19.7,0-35.7-11.1-35.7-24.8s16-24.8,35.7-24.8h209.1c19.7,0,35.7,11.1,35.7,24.8
				s-16,24.8-35.7,24.8H291.4z"/>
		</g>
		<g>
			<path class="st5" d="M513.7,261.4c0,1.9-2.4,3.4-5.4,3.4c-3,0-5.4-1.5-5.4-3.4c0-1.9,2.4-3.4,5.4-3.4
				C511.3,258.1,513.7,259.6,513.7,261.4z"/>
			<ellipse class="st5" cx="518.9" cy="270.3" rx="9.3" ry="5.8"/>
		</g>
	</g>
	<g>
		<path class="st5" d="M348.4,293.9c-2.4,0-4.5-0.5-6.1-1.3c-1.4-0.7-2.5-1.8-3.4-3.1c-0.8-1.3-1.3-2.8-1.4-4.4l-0.1-1.3l7.8-0.4
			l0.2,1.1c0.2,1.2,0.6,2.1,1.3,2.6c0.4,0.3,0.9,0.5,1.5,0.5l0.1,0c0.9,0,1.6-0.3,2.1-0.9c0.2-0.3,0.3-0.7,0.3-1
			c0-0.9-0.9-1.8-1.6-2.4l-5-3.4c-2-1.4-3.4-2.6-4.3-3.8c-1-1.4-1.5-2.9-1.5-4.6c0-2.9,1.4-5.2,4.1-6.7c1.6-0.9,3.6-1.3,5.9-1.3
			c2.2,0,4.1,0.4,5.7,1.1c1.3,0.6,2.4,1.4,3.2,2.5c0.8,1.1,1.3,2.3,1.5,3.7l0.1,1.2l-7.9,1l-0.2-1.2c-0.1-0.8-0.4-1.4-0.9-1.8
			c-0.3-0.2-0.8-0.4-1.5-0.4c-0.9,0-1.2,0.3-1.4,0.5c-0.3,0.3-0.4,0.7-0.4,1.2c0,0.9,0.6,1.8,1.8,2.9c0.5,0.4,1.3,1,2.4,1.6
			c1.4,0.8,2.3,1.4,2.7,1.7c1.5,1.1,2.7,2.2,3.5,3.2c0.4,0.5,0.7,1,1,1.4c0.7,1.2,1,2.2,1,3.2c0,2.2-0.8,4.2-2.4,5.8
			c-1.1,1.1-2.6,1.8-4.5,2.2C350.8,293.8,349.7,293.9,348.4,293.9z"/>
		<path class="st6" d="M355.4,290.4c1.4-1.3,2.1-3,2-4.8c0-0.8-0.3-1.6-0.8-2.6c-0.2-0.4-0.5-0.8-0.9-1.3c-0.8-1-1.8-2-3.2-3
			c-0.4-0.3-1.3-0.9-2.6-1.7c-1.1-0.7-2-1.2-2.5-1.7c-1.5-1.3-2.2-2.5-2.2-3.8c0-0.8,0.2-1.5,0.7-2c0.5-0.7,1.3-1,2.4-1
			c1,0,1.7,0.2,2.3,0.7c0.7,0.6,1.2,1.5,1.3,2.6l5.4-0.7c-0.1-1.2-0.6-2.2-1.3-3.1c-0.7-0.9-1.6-1.6-2.7-2.1c-1.4-0.7-3.2-1-5.2-1
			c-2.1,0-3.9,0.4-5.3,1.1c-2.3,1.3-3.5,3.1-3.5,5.6c0,1.4,0.4,2.6,1.3,3.8c0.8,1,2.1,2.2,4,3.5c2.2,1.5,3.9,2.7,5.1,3.4
			c1.4,1.1,2.1,2.2,2.1,3.4c0,0.8-0.2,1.4-0.6,1.8c-0.7,0.9-1.7,1.3-3,1.3c0,0-0.1,0-0.1,0c-0.8,0-1.6-0.3-2.2-0.8
			c-0.9-0.7-1.5-1.9-1.7-3.4l-5.4,0.3c0.1,1.4,0.5,2.7,1.3,3.8c0.7,1.1,1.7,2,2.9,2.7c1.5,0.8,3.3,1.2,5.5,1.2
			c1.2,0,2.3-0.1,3.2-0.3C353.2,292,354.5,291.3,355.4,290.4z"/>
		<polygon class="st5" points="366.2,293.6 366.2,270.6 360.2,270.6 360.2,264 380.4,264 380.4,270.6 374.4,270.6 374.4,293.6 		"/>
		<polygon class="st6" points="361.4,269.3 367.4,269.3 367.4,292.3 373.1,292.3 373.1,269.3 379.1,269.3 379.1,265.2 361.4,265.2 
					"/>
		<path class="st5" d="M392.1,293.6l-1.3-6.2h-4l-1.4,6.2H377l7-29.6h9.8l6.9,29.6H392.1z M389.4,280.9l-0.6-3.1l-0.6,3.1H389.4z"/>
		<path class="st6" d="M384.5,292.3l1.4-6.2h5.9l1.3,6.2h6l-6.3-27.1H385l-6.4,27.1H384.5z M388.8,271.4l2.1,10.7h-4.2L388.8,271.4z
			"/>
		<path class="st5" d="M415.9,293.6l-3.4-10.2h-1.7v10.2h-8.2V264h10.2c3.5,0,6,0.7,7.8,2.2c1.6,1.3,2.4,3.2,2.4,5.5v3.9
			c0,2.1-0.9,3.9-2.8,5.3l4.5,12.6H415.9z M413,276.8c0.6,0,1.2-0.1,1.6-0.5c0.4-0.3,0.4-0.6,0.4-0.7v-4c0-0.4,0-1.1-2-1.1h-2.2v6.2
			H413z"/>
		<path class="st6" d="M421.8,275.6v-3.9c0-2-0.7-3.5-2-4.6c-1.5-1.3-3.8-1.9-7-1.9h-9v27.1h5.7v-10.2h3.3c0.2,0,0.4,0,0.5,0
			l3.4,10.2h6.2l-4.2-11.8C420.8,279.2,421.8,277.6,421.8,275.6z M416.2,275.7c0,0.6-0.3,1.2-0.9,1.7c-0.6,0.5-1.4,0.7-2.3,0.7h-3.4
			v-8.7h3.4c2.2,0,3.2,0.8,3.2,2.4V275.7z"/>
		<polygon class="st5" points="430.8,293.6 430.8,270.6 424.7,270.6 424.7,264 444.9,264 444.9,270.6 438.9,270.6 438.9,293.6 		"/>
		<polygon class="st6" points="426,269.3 432,269.3 432,292.3 437.7,292.3 437.7,269.3 443.7,269.3 443.7,265.2 426,265.2 		"/>
	</g>
</g>
</svg>
