<?xml version="1.0" encoding="utf-8"?>
<!-- Generator: Adobe Illustrator 25.0.0, SVG Export Plug-In . SVG Version: 6.00 Build 0)  -->
<svg version="1.1" id="Layer_1" xmlns="http://www.w3.org/2000/svg" xmlns:xlink="http://www.w3.org/1999/xlink" x="0px" y="0px"
	 viewBox="0 0 1366 768" style="enable-background:new 0 0 1366 768;" xml:space="preserve">
<style type="text/css">
	.st0{fill:#81730C;}
	.st1{fill:#BCA61F;}
	.st2{fill:#D9BE23;}
	.st3{fill:#8C7E11;}
	.st4{fill:#DCD51E;}
	.st5{fill:#FFFFFF;}
	.st6{fill:#404041;}
</style>
<g>
	<g>
		<path class="st0" d="M1214,407.3c-31.2-22.5-72.4-34.8-115.8-34.8H316.9c-43.5,0-84.6,12.4-115.8,34.8c-33.5,24.1-52,56.9-52,92.4
			c0,35.4,18.5,68.2,52,92.3c31.2,22.5,72.4,34.8,115.8,34.8h781.3c43.5,0,84.6-12.4,115.8-34.8c33.5-24.1,52-56.9,52-92.3
			C1266,464.2,1247.5,431.4,1214,407.3z"/>
		<rect x="149.1" y="395.5" class="st0" width="1116.9" height="117.3"/>
		<g>
			<path class="st1" d="M316.9,522.7c-43.5,0-84.6-12.4-115.8-34.8c-33.5-24.1-52-56.9-52-92.3c0-35.4,18.5-68.2,52-92.4
				c31.2-22.5,72.4-34.8,115.8-34.8h781.3c43.5,0,84.6,12.4,115.8,34.8c33.5,24.1,52,56.9,52,92.4c0,35.4-18.5,68.2-52,92.3
				c-31.2,22.5-72.4,34.8-115.8,34.8H316.9z"/>
			<path class="st2" d="M1098.2,291.3c80,0,144.8,46.6,144.8,104.2c0,57.5-64.8,104.2-144.8,104.2H316.9
				c-80,0-144.8-46.6-144.8-104.2c0-57.5,64.8-104.2,144.8-104.2H1098.2z"/>
		</g>
		<path class="st3" d="M1242.8,320.1c0,0.3,0,0.7-0.1,1c-0.1,1.6-0.3,3.2-0.5,4.7c-0.1,0.4-0.1,0.7-0.2,1.1
			c-0.2,1.2-0.4,2.4-0.6,3.7c-0.1,0.5-0.2,0.9-0.3,1.4c-0.2,1.1-0.5,2.1-0.8,3.2c-0.2,0.6-0.3,1.2-0.5,1.8c-0.3,1.1-0.7,2.3-1.1,3.4
			c-0.2,0.5-0.3,0.9-0.5,1.4c-0.6,1.6-1.2,3.1-1.8,4.7c-0.1,0.3-0.3,0.5-0.4,0.8c-0.6,1.3-1.1,2.5-1.8,3.8c-0.3,0.5-0.5,1-0.8,1.5
			c-0.5,1-1.1,2-1.6,3c-0.3,0.6-0.7,1.1-1,1.7c-0.5,0.9-1.1,1.8-1.7,2.7c-0.4,0.6-0.7,1.1-1.1,1.7c-0.6,0.9-1.2,1.8-1.9,2.6
			c-0.4,0.5-0.8,1.1-1.2,1.6c-0.7,0.9-1.5,1.9-2.2,2.8c-0.3,0.4-0.7,0.9-1,1.3c-1.1,1.3-2.3,2.7-3.5,4c-0.1,0.1-0.1,0.1-0.2,0.2
			c-1.2,1.2-2.4,2.4-3.6,3.6c-0.4,0.4-0.9,0.8-1.3,1.2c-0.8,0.8-1.7,1.6-2.5,2.3c-1.7,1.5-3.5,3-5.3,4.5c0,0-0.1,0.1-0.1,0.1
			c-1.8,1.4-3.7,2.8-5.6,4.1c-1,0.7-1.9,1.4-2.9,2c-0.5,0.3-1,0.7-1.6,1.1c-1.5,1-3.1,2-4.6,2.9c-0.1,0.1-0.2,0.1-0.3,0.2
			c-1.7,1-3.4,1.9-5.1,2.9c-0.5,0.3-1.1,0.6-1.7,0.9c-1.2,0.6-2.4,1.3-3.6,1.9c-0.7,0.3-1.4,0.7-2,1c-1.1,0.5-2.3,1.1-3.5,1.6
			c-0.7,0.3-1.4,0.6-2.2,0.9c-1.2,0.5-2.4,1-3.6,1.5c-0.7,0.3-1.4,0.6-2.1,0.8c-1.3,0.5-2.7,1-4.1,1.5c-0.6,0.2-1.2,0.4-1.8,0.6
			c-1.8,0.6-3.7,1.2-5.5,1.8c-0.2,0.1-0.4,0.1-0.6,0.2c-2.1,0.6-4.1,1.2-6.2,1.8c-0.7,0.2-1.3,0.3-2,0.5c-1.5,0.4-2.9,0.7-4.4,1.1
			c-0.8,0.2-1.7,0.4-2.5,0.5c-1.4,0.3-2.8,0.6-4.2,0.9c-0.6,0.1-1.3,0.2-1.9,0.3c-1.6,0.3-3.2,0.6-4.8,0.8c-0.5,0.1-1.1,0.2-1.6,0.3
			c-2.1,0.3-4.2,0.6-6.4,0.8c-0.4,0-0.8,0.1-1.2,0.1c-1.6,0.2-3.2,0.3-4.9,0.4c-1.8,0.1-3.6,0.3-5.5,0.4c-0.9,0-1.7,0.1-2.6,0.1
			c-2.7,0.1-5.4,0.2-8.2,0.2H316.9c-2.1,0-4.2-0.1-6.2-0.1c-0.6,0-1.2,0-1.9-0.1c-2.2-0.1-4.4-0.2-6.6-0.4c-0.2,0-0.5,0-0.7-0.1
			c-2-0.1-3.9-0.3-5.9-0.5c-0.6-0.1-1.3-0.1-1.9-0.2c-1.5-0.2-2.9-0.4-4.3-0.6c-0.9-0.1-1.8-0.3-2.7-0.4c-1.4-0.2-2.7-0.4-4.1-0.7
			c-0.9-0.1-1.7-0.3-2.6-0.5c-1.5-0.3-3-0.6-4.4-0.9c-0.7-0.1-1.4-0.3-2.1-0.4c-2.1-0.5-4.3-1-6.4-1.6c0,0-0.1,0-0.1,0
			c-2-0.5-3.9-1.1-5.8-1.7c-0.6-0.2-1.2-0.4-1.8-0.6c-1.4-0.4-2.8-0.9-4.1-1.3c-0.6-0.2-1.3-0.4-1.9-0.7c-1.5-0.5-2.9-1-4.3-1.6
			c-0.5-0.2-0.9-0.3-1.4-0.5c-1.9-0.7-3.7-1.5-5.5-2.3c-0.4-0.2-0.8-0.4-1.2-0.5c-1.4-0.6-2.8-1.3-4.2-1.9c-0.6-0.3-1.2-0.6-1.7-0.9
			c-1.2-0.6-2.4-1.2-3.6-1.9c-0.5-0.3-1.1-0.6-1.6-0.9c-1.5-0.8-3-1.7-4.5-2.5c-0.2-0.1-0.3-0.2-0.5-0.3c-1.6-1-3.2-2-4.8-3
			c-0.5-0.3-0.9-0.6-1.4-0.9c-1.1-0.7-2.2-1.5-3.3-2.3c-0.5-0.4-1-0.7-1.5-1.1c-1.1-0.8-2.2-1.6-3.2-2.4c-0.4-0.3-0.8-0.6-1.2-0.9
			c-1.4-1.1-2.8-2.3-4.1-3.4c-0.2-0.2-0.5-0.4-0.7-0.6c-1.1-1-2.2-2-3.2-3c-0.4-0.4-0.8-0.8-1.2-1.2c-0.9-0.9-1.7-1.7-2.6-2.6
			c-0.4-0.4-0.8-0.8-1.2-1.2c-1-1.1-1.9-2.1-2.9-3.2c-0.2-0.2-0.4-0.4-0.6-0.7c-1.1-1.3-2.1-2.6-3.2-4c-0.3-0.4-0.5-0.7-0.8-1.1
			c-0.7-1-1.4-2-2.1-3c-0.3-0.5-0.6-0.9-0.9-1.4c-0.7-1-1.3-2-1.9-3c-0.2-0.4-0.5-0.8-0.7-1.2c-0.8-1.4-1.6-2.8-2.4-4.3
			c-0.1-0.2-0.2-0.3-0.2-0.5c-0.6-1.3-1.3-2.6-1.8-3.9c-0.2-0.5-0.4-0.9-0.6-1.4c-0.4-1-0.9-2.1-1.3-3.2c-0.2-0.5-0.4-1-0.5-1.5
			c-0.4-1.2-0.8-2.4-1.2-3.6c-0.1-0.3-0.2-0.7-0.3-1c-0.4-1.5-0.8-3.1-1.2-4.6c-0.1-0.4-0.2-0.8-0.2-1.2c-0.2-1.2-0.5-2.4-0.6-3.6
			c-0.1-0.5-0.2-1.1-0.2-1.6c-0.1-1.1-0.3-2.3-0.4-3.4c0-0.5-0.1-1-0.1-1.5c-0.1-1.6-0.2-3.2-0.2-4.9v0v0v80c0,1.6,0.1,3.3,0.2,4.9
			c0,0.5,0.1,1,0.1,1.5c0.1,1.1,0.2,2.3,0.4,3.4c0.1,0.5,0.1,1.1,0.2,1.6c0.2,1.2,0.4,2.4,0.6,3.6c0.1,0.4,0.1,0.8,0.2,1.2
			c0.3,1.6,0.7,3.1,1.2,4.6c0.1,0.3,0.2,0.7,0.3,1c0.4,1.2,0.7,2.4,1.2,3.6c0.2,0.5,0.4,1,0.5,1.5c0.4,1.1,0.8,2.1,1.3,3.2
			c0.2,0.5,0.4,0.9,0.6,1.4c0.6,1.3,1.2,2.6,1.8,3.9c0.1,0.2,0.2,0.3,0.2,0.5c0.7,1.4,1.5,2.9,2.4,4.3c0.2,0.4,0.5,0.8,0.7,1.2
			c0.6,1,1.2,2,1.9,3c0.3,0.5,0.6,0.9,0.9,1.4c0.7,1,1.4,2,2.1,3c0.3,0.4,0.5,0.7,0.8,1.1c1,1.3,2.1,2.7,3.2,4
			c0.2,0.2,0.4,0.4,0.6,0.7c0.9,1.1,1.9,2.1,2.9,3.2c0.4,0.4,0.8,0.8,1.2,1.2c0.8,0.9,1.7,1.8,2.6,2.6c0.4,0.4,0.8,0.8,1.2,1.2
			c1,1,2.1,2,3.2,3c0.2,0.2,0.5,0.4,0.7,0.6c1.3,1.2,2.7,2.3,4.1,3.4c0.4,0.3,0.8,0.6,1.2,0.9c1.1,0.8,2.1,1.6,3.2,2.4
			c0.5,0.4,1,0.7,1.5,1.1c1.1,0.8,2.2,1.5,3.3,2.3c0.5,0.3,0.9,0.6,1.4,0.9c1.6,1,3.1,2,4.8,3c0.2,0.1,0.3,0.2,0.5,0.3
			c1.5,0.9,3,1.7,4.5,2.6c0.5,0.3,1.1,0.6,1.6,0.8c1.2,0.6,2.4,1.3,3.7,1.9c0.6,0.3,1.2,0.6,1.7,0.8c1.4,0.7,2.8,1.3,4.2,1.9
			c0.4,0.2,0.8,0.4,1.2,0.5c1.8,0.8,3.6,1.5,5.5,2.3c0.5,0.2,0.9,0.3,1.4,0.5c1.4,0.5,2.9,1.1,4.3,1.6c0.6,0.2,1.3,0.4,1.9,0.7
			c1.4,0.5,2.8,0.9,4.2,1.4c0.6,0.2,1.2,0.4,1.8,0.6c1.9,0.6,3.9,1.1,5.9,1.7c0,0,0.1,0,0.1,0c0,0,0,0,0,0c2.1,0.6,4.2,1.1,6.4,1.5
			c0.7,0.2,1.4,0.3,2.1,0.4c1.5,0.3,2.9,0.6,4.4,0.9c0.8,0.2,1.7,0.3,2.6,0.5c1.4,0.2,2.7,0.5,4.1,0.7c0.9,0.1,1.8,0.3,2.7,0.4
			c0.8,0.1,1.5,0.2,2.3,0.3c0.7,0.1,1.4,0.2,2.1,0.2c0.6,0.1,1.3,0.1,1.9,0.2c1.9,0.2,3.9,0.4,5.9,0.5c0.2,0,0.5,0,0.7,0.1
			c2.2,0.2,4.4,0.3,6.6,0.4c0.6,0,1.2,0,1.9,0.1c0.9,0,1.8,0.1,2.6,0.1c1.2,0,2.4,0,3.6,0h781.3c2.7,0,5.5-0.1,8.2-0.2
			c0.9,0,1.7-0.1,2.6-0.1c1.8-0.1,3.6-0.2,5.5-0.4c0.4,0,0.7,0,1.1-0.1c1.3-0.1,2.5-0.2,3.8-0.4c0.4,0,0.8-0.1,1.2-0.1
			c2.1-0.2,4.3-0.5,6.4-0.8c0.5-0.1,1.1-0.2,1.6-0.2c1.6-0.2,3.2-0.5,4.8-0.8c0.6-0.1,1.3-0.2,1.9-0.3c0.5-0.1,0.9-0.2,1.4-0.3
			c0.9-0.2,1.9-0.4,2.8-0.6c0.8-0.2,1.7-0.3,2.5-0.5c1.5-0.3,2.9-0.7,4.4-1.1c0.7-0.2,1.3-0.3,2-0.5c2.1-0.6,4.2-1.1,6.2-1.8
			c0.2-0.1,0.4-0.1,0.6-0.2c1.7-0.5,3.4-1.1,5.1-1.6c0.1-0.1,0.3-0.1,0.4-0.2c0.6-0.2,1.2-0.4,1.8-0.6c1.4-0.5,2.7-1,4.1-1.5
			c0.7-0.3,1.4-0.6,2.1-0.8c1.2-0.5,2.4-1,3.6-1.5c0.7-0.3,1.4-0.6,2.2-0.9c1.2-0.5,2.3-1.1,3.5-1.6c0.7-0.3,1.4-0.6,2-1
			c1.2-0.6,2.4-1.2,3.6-1.9c0.6-0.3,1.1-0.6,1.7-0.9c1.7-0.9,3.4-1.9,5.1-2.9c0.1-0.1,0.2-0.1,0.3-0.2c1.6-0.9,3.1-1.9,4.6-2.9
			c0.5-0.3,1-0.7,1.6-1.1c0.8-0.5,1.6-1,2.3-1.6c0.2-0.1,0.4-0.3,0.6-0.5c1.9-1.3,3.8-2.7,5.6-4.1c0,0,0.1-0.1,0.1-0.1
			c1.8-1.4,3.6-2.9,5.3-4.5c0.2-0.2,0.4-0.3,0.5-0.5c0.7-0.6,1.3-1.2,2-1.9c0.4-0.4,0.9-0.8,1.3-1.2c1.2-1.2,2.4-2.4,3.6-3.6
			c0.1-0.1,0.1-0.1,0.2-0.2c1.2-1.3,2.4-2.6,3.5-4c0.4-0.4,0.7-0.9,1-1.3c0.8-0.9,1.5-1.9,2.2-2.8c0.4-0.5,0.8-1,1.2-1.6
			c0.6-0.9,1.3-1.8,1.9-2.6c0.4-0.6,0.8-1.1,1.1-1.7c0.6-0.9,1.1-1.8,1.7-2.7c0.3-0.6,0.7-1.1,1-1.7c0.6-1,1.1-2,1.6-3
			c0.3-0.5,0.5-1,0.8-1.5c0.1-0.1,0.1-0.3,0.2-0.4c0.6-1.1,1.1-2.2,1.6-3.4c0.1-0.3,0.3-0.5,0.4-0.8c0.7-1.5,1.3-3.1,1.8-4.7
			c0.2-0.5,0.3-0.9,0.5-1.4c0.4-1.1,0.8-2.2,1.1-3.4c0.2-0.6,0.3-1.2,0.5-1.8c0.2-0.7,0.4-1.4,0.6-2.1c0.1-0.3,0.1-0.7,0.2-1.1
			c0.1-0.5,0.2-0.9,0.3-1.4c0.2-1.2,0.5-2.4,0.6-3.7c0.1-0.4,0.1-0.7,0.2-1.1c0.2-1.6,0.4-3.1,0.5-4.7c0-0.3,0-0.7,0.1-1
			c0.1-0.8,0.1-1.7,0.1-2.5c0-0.7,0-1.4,0-2.1v-80C1243,317,1242.9,318.5,1242.8,320.1z"/>
		<g>
			<path class="st2" d="M1098.2,211.3c80,0,144.8,46.6,144.8,104.2c0,57.5-64.8,104.2-144.8,104.2H316.9
				c-80,0-144.8-46.6-144.8-104.2c0-57.5,64.8-104.2,144.8-104.2H1098.2z"/>
			<path class="st4" d="M316.9,408.1c-73.5,0-133.3-41.6-133.3-92.6s59.8-92.6,133.3-92.6h781.3c73.5,0,133.3,41.6,133.3,92.6
				s-59.8,92.6-133.3,92.6H316.9z"/>
		</g>
		<g>
			<path class="st5" d="M1147.3,250.7c0,6.9-9.1,12.5-20.3,12.5c-11.2,0-20.3-5.6-20.3-12.5c0-6.9,9.1-12.5,20.3-12.5
				C1138.3,238.1,1147.3,243.8,1147.3,250.7z"/>
			<ellipse class="st5" cx="1166.8" cy="283.7" rx="34.9" ry="21.5"/>
		</g>
	</g>
	<g>
		<path class="st5" d="M529.6,372c-9.1,0-16.8-1.7-22.9-5c-5.2-2.8-9.4-6.6-12.5-11.5c-3.1-4.8-4.9-10.3-5.4-16.4l-0.4-4.7l29.1-1.5
			l0.6,4.1c0.7,4.7,2.3,8,4.8,9.9c1.6,1.3,3.4,1.9,5.4,1.9l0.4,0c3.4-0.1,5.9-1.1,7.8-3.4c0.8-0.9,1-2.5,1-3.7
			c0-3.3-3.3-6.6-6.1-8.8l-18.8-12.8c-7.5-5.3-12.8-9.9-16-14.2c-3.8-5.2-5.7-10.9-5.7-17c0-10.8,5.3-19.5,15.3-25
			c6-3.2,13.4-4.9,22-4.9c8.2,0,15.4,1.4,21.3,4c4.9,2.2,8.9,5.3,11.9,9.3c3.1,4,4.9,8.7,5.6,14l0.5,4.5l-29.4,3.9l-0.7-4.5
			c-0.4-3-1.5-5.3-3.4-6.9c-1.1-0.9-2.9-1.4-5.4-1.4c-3.3,0-4.6,1.2-5.3,2c-1,1.2-1.4,2.7-1.4,4.5c0,3.2,2.3,6.8,6.7,10.7
			c1.9,1.6,4.8,3.7,8.8,6c5.1,3.1,8.5,5.2,10.2,6.5c5.5,4,9.9,8.1,13,12c1.4,1.8,2.7,3.6,3.6,5.3c2.4,4.4,3.7,8.2,3.7,11.9
			c0.2,8.4-2.9,15.6-9.1,21.6c-4,4-9.7,6.8-16.8,8.4C538.7,371.6,534.4,372,529.6,372z"/>
		<path class="st6" d="M556,359.1c5.2-5,7.8-11,7.6-18.1c-0.1-2.9-1.1-6.1-3.1-9.7c-0.8-1.5-1.9-3-3.3-4.8
			c-2.8-3.7-6.9-7.4-12.1-11.2c-1.6-1.2-4.8-3.3-9.8-6.2c-4.2-2.5-7.3-4.6-9.4-6.5c-5.5-4.8-8.3-9.5-8.3-14.1c0-3,0.8-5.4,2.5-7.4
			c2-2.5,5-3.7,8.9-3.7c3.7,0,6.5,0.8,8.4,2.5c2.7,2.3,4.3,5.5,4.9,9.7l20.4-2.7c-0.5-4.4-2.1-8.3-4.7-11.7c-2.6-3.4-6-6-10.2-7.9
			c-5.4-2.4-11.9-3.6-19.4-3.6c-7.9,0-14.5,1.4-19.8,4.3c-8.6,4.7-12.9,11.7-12.9,21c0,5.1,1.6,9.9,4.7,14.2
			c2.9,3.9,7.9,8.3,14.9,13.2c8.4,5.7,14.7,10,18.9,12.9c5.3,4.2,8,8.3,8,12.5c0,2.9-0.7,5.2-2.1,6.7c-2.8,3.2-6.5,4.8-11.1,4.9
			c-0.2,0-0.3,0-0.5,0c-3.1,0-5.8-1-8.3-2.8c-3.5-2.7-5.6-6.9-6.5-12.8l-20.2,1.1c0.4,5.4,2,10.2,4.7,14.4c2.7,4.2,6.3,7.5,10.8,9.9
			c5.5,3,12.4,4.4,20.7,4.4c4.5,0,8.4-0.4,11.8-1.1C547.7,364.8,552.5,362.4,556,359.1z"/>
		<polygon class="st5" points="596.2,370.8 596.2,284.8 573.6,284.8 573.6,260.2 649.2,260.2 649.2,284.8 626.7,284.8 626.7,370.8 
					"/>
		<polygon class="st6" points="578.2,280.2 600.8,280.2 600.8,366.2 622.1,366.2 622.1,280.2 644.6,280.2 644.6,264.9 578.2,264.9 
					"/>
		<path class="st5" d="M693,370.8l-5-23.3h-14.8l-5.2,23.3h-31.6l26.1-110.5h36.5l25.8,110.5H693z M683,323.4l-2.3-11.5l-2.3,11.5
			H683z"/>
		<path class="st6" d="M664.4,366.2l5.2-23.3h22.2l5,23.3h22.3l-23.6-101.3h-29.2l-23.9,101.3H664.4z M680.7,288.1l7.9,39.9h-15.7
			L680.7,288.1z"/>
		<path class="st5" d="M781.9,370.8l-12.9-38.2h-6.3v38.2h-30.5V260.2h38.1c13.1,0,22.6,2.7,29,8.1c5.9,5,8.9,11.9,8.9,20.7v14.7
			c0,7.8-3.5,14.4-10.5,19.9l16.8,47.1H781.9z M771,308.3c2.4,0,4.3-0.6,5.9-1.7c1.6-1.2,1.6-2.1,1.6-2.5v-14.8c0-1.6,0-4.2-7.5-4.2
			h-8.2v23.2H771z"/>
		<path class="st6" d="M803.8,303.7V289c0-7.3-2.4-13-7.3-17.1c-5.5-4.7-14.2-7-26.1-7h-33.5v101.3h21.3V328h12.3c0.7,0,1.3,0,1.9,0
			l12.9,38.2h23l-15.7-44.2C800,317,803.8,310.9,803.8,303.7z M783.1,304.1c0,2.4-1.2,4.5-3.5,6.2c-2.4,1.7-5.2,2.6-8.6,2.6h-12.8
			v-32.4H771c8.1,0,12.1,2.9,12.1,8.8V304.1z"/>
		<polygon class="st5" points="837.4,370.8 837.4,284.8 814.9,284.8 814.9,260.2 890.4,260.2 890.4,284.8 867.9,284.8 867.9,370.8 
					"/>
		<polygon class="st6" points="819.5,280.2 842,280.2 842,366.2 863.3,366.2 863.3,280.2 885.8,280.2 885.8,264.9 819.5,264.9 		"/>
	</g>
</g>
</svg>
